<svg className="logo" width="203" height="49" viewBox="0 0 203 49" fill="none" xmlns="http://www.w3.org/2000/svg">
          <path d="M0 0.764538V0.0695027H12.3049V0.764538H8.91762V48.027H12.3049V48.722H0V48.027H3.17993V0.764538H0Z" fill="black" />
          <path d="M20.3487 28.3574H41.2256V28.9135H20.3487V28.3574Z" fill="black" />
          <path d="M72.4297 49C63.8117 49 57.4288 46.5442 53.281 41.6326C51.8063 39.8719 50.6081 37.5319 49.6863 34.6128C48.7646 31.6936 48.3038 28.1489 48.3038 23.9787C48.3038 19.8085 48.972 16.0785 50.3085 12.7887C51.6911 9.45248 53.5576 6.88085 55.9079 5.07376C60.4704 1.69125 65.9777 0 72.4297 0C74.2732 0 76.0705 0.162176 77.8218 0.486528C79.573 0.764541 80.8865 1.06572 81.7621 1.39007L83.0064 1.8766L82.799 2.57163C79.6652 1.32057 76.2088 0.695036 72.4297 0.695036C67.5446 0.695036 63.466 2.29362 60.1939 5.49078C57.7053 7.8539 55.954 11.3291 54.9401 15.9163C54.341 18.5111 54.0415 21.6851 54.0415 25.4383C54.0415 29.1915 54.5714 32.6667 55.6314 35.8638C56.6914 39.0147 57.8896 41.3546 59.2261 42.8837C60.6087 44.4128 62.2678 45.6407 64.2034 46.5674C66.139 47.4478 67.6829 47.9575 68.835 48.0965C69.9872 48.2355 71.3697 48.305 72.9827 48.305C74.6418 48.305 76.5083 48.1428 78.5822 47.8184C80.6561 47.4941 82.223 47.1929 83.2829 46.9149L84.8729 46.4284L85.0803 47.1234C81.5778 48.3745 77.3609 49 72.4297 49Z" fill="black" />
          <path d="M105.311 49C100.472 49 96.5319 47.6099 93.4902 44.8298C90.4486 42.0496 88.9277 37.7636 88.9277 31.9716C88.9277 26.1797 90.4947 21.6851 93.6285 18.4879C96.8084 15.2908 100.818 13.6922 105.657 13.6922C110.542 13.6922 114.505 15.0823 117.547 17.8624C120.589 20.6426 122.11 24.9286 122.11 30.7206C122.11 36.5125 120.52 41.0071 117.34 44.2043C114.206 47.4014 110.196 49 105.311 49ZM105.795 14.2482C102.293 14.2482 99.3892 15.8236 97.0849 18.9745C94.7807 22.079 93.6285 26.4345 93.6285 32.0411C93.6285 37.6014 94.6885 41.7253 96.8084 44.4128C98.9284 47.1002 101.74 48.444 105.242 48.444C108.745 48.444 111.648 46.8917 113.952 43.7872C116.257 40.6364 117.409 36.2809 117.409 30.7206C117.409 25.114 116.349 20.9669 114.229 18.2794C112.109 15.592 109.298 14.2482 105.795 14.2482Z" fill="black" />
          <path d="M143.994 49C139.155 49 135.214 47.6099 132.173 44.8298C129.131 42.0496 127.61 37.7636 127.61 31.9716C127.61 26.1797 129.177 21.6851 132.311 18.4879C135.491 15.2908 139.5 13.6922 144.339 13.6922C149.224 13.6922 153.188 15.0823 156.23 17.8624C159.271 20.6426 160.792 24.9286 160.792 30.7206C160.792 36.5125 159.202 41.0071 156.022 44.2043C152.888 47.4014 148.879 49 143.994 49ZM144.478 14.2482C140.975 14.2482 138.072 15.8236 135.767 18.9745C133.463 22.079 132.311 26.4345 132.311 32.0411C132.311 37.6014 133.371 41.7253 135.491 44.4128C137.611 47.1002 140.422 48.444 143.925 48.444C147.427 48.444 150.331 46.8917 152.635 43.7872C154.939 40.6364 156.091 36.2809 156.091 30.7206C156.091 25.114 155.031 20.9669 152.911 18.2794C150.791 15.592 147.98 14.2482 144.478 14.2482Z" fill="black" />
          <path d="M174.104 0.0695027V30.7901L196.433 0.0695027L196.986 0.55603L184.612 17.5149L203 48.722H196.571L181.086 22.3801L174.104 32.0411V48.722H168.366V0.0695027H174.104Z" fill="black" />
        </svg>