   <svg className="tasted-logo" width="178" height="20" viewBox="0 0 178 20" fill="none" xmlns="http://www.w3.org/2000/svg">
            <path d="M3.49336 4.70455H6.42327V6.29546H3.49336V12.7955C3.49336 13.3712 3.60605 13.7879 3.83143 14.0455C4.07183 14.2879 4.43995 14.4091 4.93578 14.4091C5.56684 14.4091 6.18287 14.3333 6.78388 14.1818L6.82895 15.7955C6.16784 15.9773 5.56684 16.0682 5.02593 16.0682C3.82391 16.0682 2.94494 15.803 2.38901 15.2727C1.8481 14.7273 1.57765 13.8485 1.57765 12.6364V6.29546H0V4.70455H1.57765L1.93825 1.75H3.49336V4.70455Z" fill="black" />
            <path d="M17.3967 4.43182C18.6889 4.43182 19.628 4.72727 20.2139 5.31818C20.8149 5.89394 21.1155 6.81818 21.1155 8.09091V15.7955H19.2899V14.0227C18.4184 15.3864 17.4343 16.0682 16.3374 16.0682C15.466 16.0682 14.7673 15.7652 14.2414 15.1591C13.7306 14.553 13.4751 13.7273 13.4751 12.6818V12.0455C13.4751 11.1364 13.7832 10.3864 14.3992 9.79546C15.0152 9.18939 15.8416 8.88636 16.8783 8.88636C17.4493 8.88636 18.2231 8.98485 19.1997 9.18182V7.93182C19.1997 7.2803 19.0495 6.81061 18.749 6.52273C18.4635 6.23485 18.0127 6.09091 17.3967 6.09091C16.6755 6.09091 15.6613 6.20455 14.3541 6.43182V4.77273C15.7665 4.54545 16.7807 4.43182 17.3967 4.43182ZM17.3516 10.3864C16.7206 10.3864 16.2398 10.553 15.9092 10.8864C15.5787 11.2197 15.4134 11.6894 15.4134 12.2955V12.5455C15.4134 13.1061 15.5411 13.5455 15.7965 13.8636C16.052 14.1818 16.375 14.3409 16.7657 14.3409C17.1713 14.3409 17.5845 14.1667 18.0052 13.8182C18.441 13.4545 18.8391 12.947 19.1997 12.2955V10.5455C18.6288 10.4394 18.0127 10.3864 17.3516 10.3864Z" fill="black" />
            <path d="M32.502 4.43182C33.133 4.43182 33.8918 4.52273 34.7783 4.70455L34.7332 6.34091C33.9519 6.15909 33.2382 6.06818 32.5921 6.06818C31.2399 6.06818 30.5637 6.50758 30.5637 7.38636V7.59091C30.5637 7.86364 30.6313 8.08333 30.7666 8.25C30.9168 8.41667 31.1797 8.59091 31.5554 8.77273L33.6739 9.77273C34.9511 10.3788 35.5896 11.2652 35.5896 12.4318V12.9318C35.5746 13.9773 35.2591 14.7652 34.6431 15.2955C34.042 15.8106 33.088 16.0682 31.7808 16.0682C31.1046 16.0682 30.1355 15.9091 28.8734 15.5909L28.9635 13.8636C30.0904 14.197 31.0145 14.3636 31.7357 14.3636C32.4719 14.3636 32.9828 14.2652 33.2683 14.0682C33.5537 13.8561 33.6965 13.5152 33.6965 13.0455V12.8182C33.6965 12.4545 33.6213 12.1667 33.4711 11.9545C33.3359 11.7424 33.103 11.5606 32.7724 11.4091L30.5863 10.4318C29.9251 10.1288 29.4368 9.76515 29.1213 9.34091C28.8208 8.91667 28.6705 8.42424 28.6705 7.86364V7.54545C28.7006 6.51515 29.0161 5.74242 29.6171 5.22727C30.2332 4.69697 31.1948 4.43182 32.502 4.43182Z" fill="black" />
            <path d="M45.3899 4.70455H48.3198V6.29546H45.3899V12.7955C45.3899 13.3712 45.5026 13.7879 45.728 14.0455C45.9684 14.2879 46.3365 14.4091 46.8323 14.4091C47.4634 14.4091 48.0794 14.3333 48.6804 14.1818L48.7255 15.7955C48.0644 15.9773 47.4634 16.0682 46.9225 16.0682C45.7204 16.0682 44.8415 15.803 44.2855 15.2727C43.7446 14.7273 43.4742 13.8485 43.4742 12.6364V6.29546H41.8965V4.70455H43.4742L43.8348 1.75H45.3899V4.70455Z" fill="black" />
            <path d="M59.5412 4.43182C60.8033 4.43182 61.7649 4.7803 62.426 5.47727C63.0871 6.17424 63.4177 7.18182 63.4177 8.5V10.8409H57.6254V12.1818C57.6254 12.9545 57.8057 13.5152 58.1664 13.8636C58.542 14.197 59.128 14.3636 59.9243 14.3636C60.7056 14.3636 61.6823 14.2424 62.8542 14L62.8993 15.6818C61.5019 15.9394 60.5028 16.0682 59.9018 16.0682C58.4143 16.0682 57.34 15.7424 56.6789 15.0909C56.0328 14.4394 55.7097 13.4318 55.7097 12.0682V8.5C55.7097 7.18182 56.0253 6.17424 56.6563 5.47727C57.3024 4.7803 58.264 4.43182 59.5412 4.43182ZM59.5412 6.04546C58.9552 6.04546 58.4894 6.23485 58.1438 6.61364C57.7982 6.97727 57.6254 7.50758 57.6254 8.20455V9.29545H61.502V8.27273C61.502 7.54546 61.3216 6.99242 60.961 6.61364C60.6155 6.23485 60.1422 6.04546 59.5412 6.04546Z" fill="black" />
            <path d="M78.7719 15.7955H76.9463V14C76.0448 15.3788 75.0156 16.0682 73.8587 16.0682C72.9271 16.0682 72.2134 15.75 71.7176 15.1136C71.2217 14.4621 70.9738 13.5152 70.9738 12.2727V8.22727C70.9738 7.0303 71.2443 6.09848 71.7852 5.43182C72.3411 4.76515 73.1299 4.43182 74.1516 4.43182C74.5874 4.43182 75.0456 4.54545 75.5264 4.77273C76.0073 4.98485 76.4505 5.25 76.8562 5.56818V0.272728H78.7719V15.7955ZM74.5799 6.15909C74.039 6.15909 73.6182 6.35606 73.3177 6.75C73.0323 7.12879 72.8895 7.71212 72.8895 8.5V12.0227C72.8895 13.5682 73.3628 14.3409 74.3094 14.3409C74.7602 14.3409 75.2034 14.1667 75.6391 13.8182C76.0899 13.4545 76.4956 12.947 76.8562 12.2955V7.29546C76.5407 6.96212 76.165 6.68939 75.7293 6.47727C75.3086 6.26515 74.9254 6.15909 74.5799 6.15909Z" fill="black" />
            <path d="M106.905 4.43182C107.867 4.43182 108.603 4.76515 109.114 5.43182C109.625 6.08333 109.88 7.01515 109.88 8.22727V15.7955H107.965V8.5C107.965 6.98485 107.484 6.22727 106.522 6.22727C106.101 6.22727 105.666 6.39394 105.215 6.72727C104.779 7.06061 104.396 7.51515 104.065 8.09091V15.7955H102.15V8.5C102.15 6.98485 101.669 6.22727 100.707 6.22727C100.287 6.22727 99.8509 6.39394 99.4001 6.72727C98.9644 7.06061 98.5813 7.51515 98.2507 8.09091V15.7955H96.335V4.70455H98.138V6.36364C98.5287 5.74242 98.9794 5.26515 99.4903 4.93182C100.001 4.59849 100.535 4.43182 101.09 4.43182C101.782 4.43182 102.36 4.61364 102.826 4.97727C103.292 5.32576 103.63 5.84091 103.84 6.52273C104.246 5.84091 104.712 5.32576 105.237 4.97727C105.763 4.61364 106.319 4.43182 106.905 4.43182Z" fill="black" />
            <path d="M126.247 4.70455L121.199 20H119.283L120.726 15.7955H120.004L116.872 4.70455H118.968L121.334 14.4091L124.264 4.70455H126.247Z" fill="black" />
            <path d="M136.379 4.43182C137.01 4.43182 137.769 4.52273 138.656 4.70455L138.61 6.34091C137.829 6.15909 137.115 6.06818 136.469 6.06818C135.117 6.06818 134.441 6.50758 134.441 7.38636V7.59091C134.441 7.86364 134.509 8.08333 134.644 8.25C134.794 8.41667 135.057 8.59091 135.433 8.77273L137.551 9.77273C138.828 10.3788 139.467 11.2652 139.467 12.4318V12.9318C139.452 13.9773 139.136 14.7652 138.52 15.2955C137.919 15.8106 136.965 16.0682 135.658 16.0682C134.982 16.0682 134.013 15.9091 132.751 15.5909L132.841 13.8636C133.968 14.197 134.892 14.3636 135.613 14.3636C136.349 14.3636 136.86 14.2652 137.145 14.0682C137.431 13.8561 137.574 13.5152 137.574 13.0455V12.8182C137.574 12.4545 137.499 12.1667 137.348 11.9545C137.213 11.7424 136.98 11.5606 136.65 11.4091L134.464 10.4318C133.802 10.1288 133.314 9.76515 132.999 9.34091C132.698 8.91667 132.548 8.42424 132.548 7.86364V7.54545C132.578 6.51515 132.893 5.74242 133.494 5.22727C134.11 4.69697 135.072 4.43182 136.379 4.43182Z" fill="black" />
            <path d="M150.619 4.43182C151.882 4.43182 152.843 4.7803 153.504 5.47727C154.165 6.17424 154.496 7.18182 154.496 8.5V10.8409H148.704V12.1818C148.704 12.9545 148.884 13.5152 149.245 13.8636C149.62 14.197 150.206 14.3636 151.003 14.3636C151.784 14.3636 152.76 14.2424 153.932 14L153.978 15.6818C152.58 15.9394 151.581 16.0682 150.98 16.0682C149.493 16.0682 148.418 15.7424 147.757 15.0909C147.111 14.4394 146.788 13.4318 146.788 12.0682V8.5C146.788 7.18182 147.104 6.17424 147.735 5.47727C148.381 4.7803 149.342 4.43182 150.619 4.43182ZM150.619 6.04546C150.033 6.04546 149.568 6.23485 149.222 6.61364C148.876 6.97727 148.704 7.50758 148.704 8.20455V9.29545H152.58V8.27273C152.58 7.54546 152.4 6.99242 152.039 6.61364C151.694 6.23485 151.22 6.04546 150.619 6.04546Z" fill="black" />
            <path d="M164.193 0.272728V15.7955H162.277V0.272728H164.193Z" fill="black" />
            <path d="M176.58 0C177.076 0 177.549 0.0530307 178 0.159092V1.70455C177.549 1.62879 177.083 1.59091 176.603 1.59091C176.137 1.59091 175.769 1.74243 175.498 2.04546C175.243 2.34849 175.115 2.81061 175.115 3.43182V4.70455H177.369V6.29546H175.115V15.7955H173.199V6.29546H171.622V4.70455H173.199V3.54545C173.214 2.36364 173.507 1.47727 174.078 0.886364C174.649 0.295455 175.483 0 176.58 0Z" fill="black" />
          </svg>